<?xml version="1.0" encoding="UTF-8" standalone="no"?>
<!DOCTYPE svg PUBLIC "-//W3C//DTD SVG 1.1//EN" "http://www.w3.org/Graphics/SVG/1.1/DTD/svg11.dtd">
<svg width="100%" height="100%" viewBox="0 0 1118 1118" version="1.1" xmlns="http://www.w3.org/2000/svg" xmlns:xlink="http://www.w3.org/1999/xlink" xml:space="preserve" xmlns:serif="http://www.serif.com/" style="fill-rule:evenodd;clip-rule:evenodd;stroke-linejoin:round;stroke-miterlimit:2;">
    <g transform="matrix(1.96117,0,0,1.96117,-1817.57,-1971.25)">
        <g>
            <g transform="matrix(0.958474,-8.32259e-19,-5.15523e-19,0.958474,775.409,542.411)">
                <path d="M455.309,482.773C619.439,482.773 752.692,616.025 752.692,780.155C752.692,944.286 619.439,1077.54 455.309,1077.54C291.179,1077.54 157.926,944.286 157.926,780.155C157.926,616.025 291.179,482.773 455.309,482.773ZM455.309,569.716C339.164,569.716 244.87,664.011 244.87,780.155C244.87,896.3 339.164,990.595 455.309,990.595C571.453,990.595 665.748,896.3 665.748,780.155C665.748,664.011 571.453,569.716 455.309,569.716ZM171.968,780.885C171.968,797.182 185.199,810.413 201.496,810.413C217.792,810.413 231.023,797.182 231.023,780.885C231.023,764.589 217.792,751.358 201.496,751.358C185.199,751.358 171.968,764.589 171.968,780.885ZM210.296,923.52C218.444,937.633 236.518,942.476 250.631,934.327C264.745,926.179 269.587,908.105 261.439,893.992C253.291,879.879 235.217,875.036 221.104,883.184C206.99,891.332 202.148,909.406 210.296,923.52ZM314.284,1026.98C328.398,1035.12 346.471,1030.28 354.62,1016.17C362.768,1002.06 357.925,983.982 343.812,975.833C329.698,967.685 311.625,972.528 303.476,986.641C295.328,1000.75 300.171,1018.83 314.284,1026.98ZM456.069,1064.58C472.366,1064.58 485.597,1051.35 485.597,1035.05C485.597,1018.75 472.366,1005.52 456.069,1005.52C439.773,1005.52 426.542,1018.75 426.542,1035.05C426.542,1051.35 439.773,1064.58 456.069,1064.58ZM597.66,1026.25C611.773,1018.1 616.616,1000.03 608.468,985.916C600.32,971.802 582.246,966.96 568.132,975.108C554.019,983.256 549.176,1001.33 557.325,1015.44C565.473,1029.56 583.547,1034.4 597.66,1026.25ZM701.117,922.263C709.266,908.15 704.423,890.076 690.309,881.927C676.196,873.779 658.122,878.622 649.974,892.735C641.826,906.849 646.668,924.922 660.782,933.071C674.895,941.219 692.969,936.376 701.117,922.263ZM738.72,780.478C738.72,764.181 725.489,750.95 709.192,750.95C692.895,750.95 679.665,764.181 679.665,780.478C679.665,796.774 692.895,810.005 709.192,810.005C725.489,810.005 738.72,796.774 738.72,780.478ZM700.392,638.887C692.243,624.774 674.17,619.931 660.056,628.079C645.943,636.228 641.1,654.301 649.248,668.415C657.397,682.528 675.471,687.371 689.584,679.222C703.697,671.074 708.54,653 700.392,638.887ZM596.403,535.43C582.29,527.281 564.216,532.124 556.068,546.238C547.92,560.351 552.762,578.425 566.876,586.573C580.989,594.721 599.063,589.879 607.211,575.765C615.36,561.652 610.517,543.578 596.403,535.43ZM455.662,497.827C439.365,497.827 426.134,511.058 426.134,527.355C426.134,543.652 439.365,556.883 455.662,556.883C471.958,556.883 485.189,543.652 485.189,527.355C485.189,511.058 471.958,497.827 455.662,497.827ZM313.028,536.155C298.914,544.304 294.071,562.377 302.22,576.491C310.368,590.604 328.442,595.447 342.555,587.299C356.668,579.15 361.511,561.077 353.363,546.963C345.215,532.85 327.141,528.007 313.028,536.155ZM209.57,640.144C201.422,654.257 206.265,672.331 220.378,680.479C234.492,688.627 252.565,683.785 260.714,669.671C268.862,655.558 264.019,637.484 249.906,629.336C235.792,621.187 217.719,626.03 209.57,640.144Z"/>
            </g>
            <g>
                <g>
                    <g transform="matrix(1.11072,0,0,1.11072,-732.387,-2257.12)">
                        <g>
                            <g transform="matrix(0.78543,0,0,0.690834,157.234,1922.73)">
                                <path d="M1944.52,1800.32L1944.52,1925.01C1944.52,1930.2 1940.44,1934.6 1935.24,1934.6L1841.12,1934.6C1835.92,1934.6 1831.85,1930.2 1831.85,1925.01L1831.85,1911.24C1831.85,1906.05 1835.92,1901.64 1841.12,1901.64C1841.12,1901.64 1912.21,1901.64 1912.21,1901.64L1912.21,1800.32C1912.21,1798.83 1913.28,1797.61 1914.6,1797.61L1942.13,1797.61C1943.44,1797.61 1944.52,1798.83 1944.52,1800.32Z"/>
                            </g>
                            <g transform="matrix(0.78543,0,0,0.690834,157.234,1922.73)">
                                <path d="M1912.21,1782.89L1912.21,1645.53C1912.21,1640.34 1916.28,1635.93 1921.48,1635.93L1931.21,1635.93C1933.55,1635.93 1935.88,1636.84 1937.65,1638.62C1937.65,1638.62 2028.39,1729.36 2028.39,1729.36L2119.12,1638.62C2120.9,1636.84 2123.23,1635.93 2125.56,1635.93L2135.29,1635.93C2140.49,1635.93 2144.56,1640.34 2144.56,1645.53L2144.56,1782.89C2144.56,1784.39 2143.49,1785.61 2142.17,1785.61L2114.65,1785.61C2113.33,1785.61 2112.26,1784.39 2112.26,1782.89L2112.26,1694.72L2033.39,1773.58C2033.35,1773.62 2033.31,1773.66 2033.27,1773.69C2031.96,1774.84 2030.26,1775.54 2028.39,1775.54C2026.52,1775.54 2024.81,1774.84 2023.5,1773.69C2023.46,1773.66 2023.42,1773.62 2023.38,1773.58L1944.52,1694.72L1944.52,1782.89C1944.52,1784.39 1943.44,1785.61 1942.13,1785.61L1914.6,1785.61C1913.28,1785.61 1912.21,1784.39 1912.21,1782.89Z"/>
                            </g>
                        </g>
                        <g transform="matrix(0.78543,0,0,0.690834,157.234,1922.73)">
                            <path d="M2144.56,1800.32L2144.56,1901.64L2215.66,1901.64C2220.85,1901.64 2224.93,1906.05 2224.93,1911.24L2224.93,1925.01C2224.93,1930.2 2220.85,1934.6 2215.66,1934.6L2121.53,1934.6C2116.33,1934.6 2112.26,1930.2 2112.26,1925.01L2112.26,1800.32C2112.26,1798.83 2113.33,1797.61 2114.65,1797.61L2142.17,1797.61C2143.49,1797.61 2144.56,1798.83 2144.56,1800.32Z"/>
                        </g>
                    </g>
                    <g transform="matrix(0.942273,0,0,0.942273,986.241,-273.814)">
                        <path d="M212.575,1696.28C207.69,1696.28 203.764,1695.43 200.796,1693.73C199.023,1692.72 197.105,1690.96 195.042,1688.44L195.042,1694.91L179.898,1694.91L179.898,1625.43L195.314,1625.43L195.314,1650.16C197.268,1647.77 199.421,1645.94 201.773,1644.69C204.56,1643.11 208.106,1642.33 212.412,1642.33C220.192,1642.33 226.281,1644.76 230.678,1649.64C235.074,1654.52 237.273,1660.81 237.273,1668.52C237.273,1676.52 235.102,1683.14 230.759,1688.39C226.417,1693.65 220.355,1696.28 212.575,1696.28ZM221.043,1669.94C221.043,1666.29 220.5,1663.27 219.414,1660.88C217.352,1656.34 213.552,1654.08 208.016,1654.08C202.407,1654.08 198.553,1656.3 196.454,1660.73C195.368,1663.09 194.825,1666.15 194.825,1669.89C194.825,1674.3 195.947,1677.95 198.191,1680.84C200.434,1683.74 203.854,1685.18 208.45,1685.18C212.43,1685.18 215.524,1683.78 217.732,1680.98C219.939,1678.18 221.043,1674.5 221.043,1669.94Z"/>
                    </g>
                    <g transform="matrix(0.942273,0,0,0.942273,986.241,-273.814)">
                        <path d="M250.571,1649.03C254.661,1644.5 261.681,1642.23 271.632,1642.23C278.11,1642.23 283.864,1643.35 288.894,1645.58C293.924,1647.82 296.439,1652.03 296.439,1658.23L296.439,1681.83C296.439,1683.47 296.475,1685.45 296.547,1687.78C296.656,1689.54 296.963,1690.74 297.47,1691.37C297.977,1692 298.736,1692.52 299.75,1692.92L299.75,1694.91L282.923,1694.91C282.452,1693.87 282.127,1692.89 281.946,1691.98C281.765,1691.07 281.62,1690.03 281.511,1688.87C279.376,1690.88 276.916,1692.59 274.129,1694.01C270.8,1695.68 267.037,1696.51 262.839,1696.51C257.483,1696.51 253.059,1695.18 249.567,1692.52C246.075,1689.87 244.329,1686.1 244.329,1681.22C244.329,1674.89 247.134,1670.32 252.743,1667.48C255.819,1665.94 260.342,1664.84 266.313,1664.18L271.578,1663.61C274.437,1663.3 276.481,1662.9 277.712,1662.43C279.919,1661.62 281.023,1660.34 281.023,1658.61C281.023,1656.5 280.182,1655.05 278.499,1654.24C276.816,1653.44 274.346,1653.04 271.09,1653.04C267.435,1653.04 264.847,1653.83 263.327,1655.4C262.242,1656.57 261.518,1658.14 261.156,1660.12L246.229,1660.12C246.555,1655.62 248.002,1651.92 250.571,1649.03ZM262.079,1685.18C263.526,1686.22 265.3,1686.74 267.398,1686.74C270.728,1686.74 273.795,1685.89 276.599,1684.19C279.404,1682.49 280.86,1679.39 280.969,1674.89L280.969,1669.89C279.992,1670.43 279.005,1670.86 278.01,1671.19C277.015,1671.52 275.649,1671.83 273.912,1672.11L270.438,1672.68C267.181,1673.18 264.847,1673.79 263.436,1674.52C261.048,1675.74 259.853,1677.65 259.853,1680.23C259.853,1682.53 260.595,1684.18 262.079,1685.18Z"/>
                    </g>
                    <g transform="matrix(0.942273,0,0,0.942273,987.772,-425.687)">
                        <path d="M260.695,1649.97C265.689,1655.42 268.186,1661.85 268.186,1669.28C268.186,1676.83 265.689,1683.29 260.695,1688.65C255.701,1694.02 248.12,1696.7 237.951,1696.7C227.783,1696.7 220.202,1694.02 215.208,1688.65C210.214,1683.29 207.717,1676.83 207.717,1669.28C207.717,1661.85 210.214,1655.42 215.208,1649.97C220.202,1644.53 227.783,1641.81 237.951,1641.81C248.12,1641.81 255.701,1644.53 260.695,1649.97ZM237.897,1653.18C233.374,1653.18 229.891,1654.57 227.448,1657.36C225.005,1660.14 223.784,1664.12 223.784,1669.28C223.784,1674.44 225.005,1678.42 227.448,1681.22C229.891,1684.02 233.374,1685.42 237.897,1685.42C242.42,1685.42 245.894,1684.02 248.319,1681.22C250.743,1678.42 251.956,1674.44 251.956,1669.28C251.956,1664.12 250.743,1660.14 248.319,1657.36C245.894,1654.57 242.42,1653.18 237.897,1653.18Z"/>
                    </g>
                    <g transform="matrix(0.942273,0,0,0.942273,1129.24,-273.814)">
                        <path d="M243.488,1696.28C238.603,1696.28 234.676,1695.43 231.709,1693.73C229.936,1692.72 228.018,1690.96 225.955,1688.44L225.955,1694.91L210.811,1694.91L210.811,1625.43L226.227,1625.43L226.227,1650.16C228.181,1647.77 230.334,1645.94 232.686,1644.69C235.472,1643.11 239.019,1642.33 243.325,1642.33C251.105,1642.33 257.194,1644.76 261.59,1649.64C265.987,1654.52 268.186,1660.81 268.186,1668.52C268.186,1676.52 266.014,1683.14 261.672,1688.39C257.329,1693.65 251.268,1696.28 243.488,1696.28ZM251.956,1669.94C251.956,1666.29 251.413,1663.27 250.327,1660.88C248.265,1656.34 244.465,1654.08 238.928,1654.08C233.319,1654.08 229.465,1656.3 227.367,1660.73C226.281,1663.09 225.738,1666.15 225.738,1669.89C225.738,1674.3 226.86,1677.95 229.104,1680.84C231.347,1683.74 234.767,1685.18 239.363,1685.18C243.343,1685.18 246.437,1683.78 248.645,1680.98C250.852,1678.18 251.956,1674.5 251.956,1669.94Z"/>
                    </g>
                    <g transform="matrix(0.942273,0,0,0.942273,1111.08,-348.224)">
                        <path d="M245.768,1643.46L245.768,1694.91L230.081,1694.91L230.081,1643.46L245.768,1643.46ZM245.768,1624.91L245.768,1637.32L230.081,1637.32L230.081,1624.91L245.768,1624.91Z"/>
                    </g>
                    <g transform="matrix(0.942273,0,0,0.942273,845.985,-273.814)">
                        <path d="M265.2,1625.43L265.2,1694.91L250.164,1694.91L250.164,1687.78C247.957,1690.83 245.442,1693.05 242.619,1694.43C239.797,1695.82 236.287,1696.51 232.089,1696.51C225.177,1696.51 219.36,1694.08 214.638,1689.22C209.915,1684.36 207.554,1678.12 207.554,1670.5C207.554,1661.73 209.879,1654.82 214.529,1649.78C219.179,1644.75 225.394,1642.23 233.175,1642.23C236.757,1642.23 239.942,1642.92 242.728,1644.29C245.514,1645.65 247.776,1647.55 249.513,1649.97L249.513,1625.43L265.2,1625.43ZM223.513,1669.51C223.513,1674.27 224.598,1678.06 226.769,1680.89C228.904,1683.75 232.161,1685.18 236.54,1685.18C240.919,1685.18 244.248,1683.77 246.528,1680.94C248.807,1678.1 249.947,1674.44 249.947,1669.94C249.947,1663.64 248.12,1659.14 244.465,1656.44C242.221,1654.8 239.616,1653.98 236.649,1653.98C232.125,1653.98 228.805,1655.47 226.688,1658.44C224.571,1661.42 223.513,1665.11 223.513,1669.51Z"/>
                    </g>
                    <g transform="matrix(0.942273,0,0,0.942273,845.985,-348.224)">
                        <path d="M265.037,1679.8C264.639,1682.86 262.812,1685.95 259.555,1689.1C254.489,1694.11 247.396,1696.61 238.277,1696.61C230.75,1696.61 224.11,1694.5 218.356,1690.28C212.602,1686.07 209.725,1679.2 209.725,1669.7C209.725,1660.8 212.322,1653.97 217.515,1649.22C222.707,1644.47 229.447,1642.09 237.734,1642.09C242.656,1642.09 247.088,1642.89 251.033,1644.5C254.977,1646.1 258.234,1648.63 260.803,1652.1C263.119,1655.15 264.621,1658.69 265.309,1662.72C265.707,1665.08 265.87,1668.48 265.797,1672.91L225.304,1672.91C225.521,1678.07 227.385,1681.69 230.895,1683.77C233.03,1685.06 235.599,1685.7 238.603,1685.7C241.787,1685.7 244.374,1684.92 246.365,1683.34C247.45,1682.49 248.409,1681.31 249.242,1679.8L265.037,1679.8ZM249.73,1664.04C249.477,1660.48 248.237,1657.78 246.012,1655.94C243.786,1654.1 241.027,1653.18 237.734,1653.18C234.152,1653.18 231.374,1654.16 229.402,1656.11C227.43,1658.06 226.19,1660.7 225.684,1664.04L249.73,1664.04Z"/>
                    </g>
                </g>
                <g transform="matrix(1.03282,0,0,1.03282,180.514,-1958.58)">
                    <path d="M981.31,3278.86C984.817,3284.82 986.024,3292.12 984.095,3299.33C980.276,3313.57 965.607,3322.04 951.357,3318.22C937.107,3314.41 928.638,3299.73 932.456,3285.48C936.274,3271.24 950.943,3262.77 965.194,3266.58L965.197,3266.58C967.196,3267.12 969.08,3267.87 970.833,3268.81L974.655,3264.98C974.655,3264.98 974.655,3222.5 974.656,3222.5C972.112,3220.39 970.489,3217.23 970.489,3213.67L970.489,3199.84C970.489,3193.53 975.608,3188.41 981.914,3188.41C988.221,3188.41 993.34,3193.53 993.34,3199.84L993.34,3213.67C993.34,3217.23 991.717,3220.39 989.173,3222.5L989.173,3267.99C989.173,3269.91 988.408,3271.76 987.047,3273.12L981.31,3278.86ZM958.346,3279.85C951.403,3279.85 945.767,3285.49 945.767,3292.43C945.767,3299.37 951.403,3305.01 958.346,3305.01C965.289,3305.01 970.925,3299.37 970.925,3292.43C970.925,3285.49 965.289,3279.85 958.346,3279.85ZM1007.87,3222.5C1005.34,3220.39 1003.71,3217.22 1003.71,3213.67L1003.71,3199.84C1003.71,3193.53 1008.83,3188.41 1015.13,3188.41C1021.44,3188.41 1026.56,3193.53 1026.56,3199.84L1026.56,3213.67C1026.56,3217.23 1024.94,3220.4 1022.39,3222.5L1022.39,3264.98C1022.39,3264.98 1026.22,3268.81 1026.22,3268.81C1027.97,3267.87 1029.85,3267.12 1031.86,3266.58L1031.86,3266.58C1046.11,3262.77 1060.78,3271.24 1064.59,3285.49C1068.41,3299.73 1059.94,3314.41 1045.69,3318.22C1031.44,3322.04 1016.77,3313.57 1012.96,3299.33C1011.02,3292.12 1012.23,3284.82 1015.74,3278.86C1015.74,3278.86 1010.01,3273.12 1010.01,3273.12C1008.64,3271.76 1007.87,3269.91 1007.87,3267.99L1007.87,3222.5ZM1038.86,3279.85C1031.92,3279.85 1026.28,3285.49 1026.28,3292.43C1026.28,3299.37 1031.92,3305.01 1038.86,3305.01C1045.8,3305.01 1051.44,3299.37 1051.44,3292.43C1051.44,3285.49 1045.8,3279.85 1038.86,3279.85ZM1042.1,3222.5C1039.56,3220.39 1037.93,3217.23 1037.93,3213.67L1037.93,3199.84C1037.93,3193.53 1043.05,3188.41 1049.36,3188.41C1055.67,3188.41 1060.78,3193.53 1060.78,3199.84L1060.78,3213.67C1060.78,3217.23 1059.16,3220.39 1056.62,3222.5L1056.62,3227.16L1071.97,3243.05C1071.97,3243.05 1082.8,3243.05 1082.8,3243.05C1084,3238.83 1086.27,3234.86 1089.59,3231.54L1089.59,3231.54C1100.02,3221.1 1116.96,3221.1 1127.39,3231.54C1137.82,3241.97 1137.82,3258.91 1127.39,3269.34C1116.96,3279.77 1100.02,3279.77 1089.59,3269.34C1086.2,3265.96 1083.92,3261.88 1082.73,3257.57L1068.88,3257.57C1066.92,3257.57 1065.04,3256.77 1063.66,3255.35L1044.13,3235.14L1044.13,3235.14C1042.83,3233.78 1042.1,3231.98 1042.1,3230.1L1042.1,3222.5ZM1108.41,3237.89C1101.47,3237.89 1095.83,3243.53 1095.83,3250.47C1095.83,3257.41 1101.47,3263.05 1108.41,3263.05C1115.36,3263.05 1120.99,3257.41 1120.99,3250.47C1120.99,3243.53 1115.36,3237.89 1108.41,3237.89ZM914.323,3257.57C913.135,3261.88 910.848,3265.96 907.462,3269.34C897.031,3279.77 880.091,3279.77 869.66,3269.34C859.228,3258.91 859.228,3241.97 869.66,3231.54C880.091,3221.1 897.031,3221.1 907.462,3231.54C910.782,3234.86 913.045,3238.83 914.252,3243.05C914.252,3243.05 926.085,3243.05 926.085,3243.05L941.434,3227.16C941.434,3227.16 941.434,3222.5 941.435,3222.5C938.891,3220.39 937.268,3217.23 937.268,3213.67L937.268,3199.84C937.268,3193.53 942.387,3188.41 948.693,3188.41C954.999,3188.41 960.119,3193.53 960.119,3199.84L960.119,3213.67C960.119,3217.23 958.496,3220.39 955.952,3222.5L955.952,3230.1C955.952,3231.98 955.222,3233.78 953.916,3235.14L953.914,3235.14L934.387,3255.35C933.018,3256.77 931.135,3257.57 929.165,3257.57L914.323,3257.57ZM888.547,3237.89C881.604,3237.89 875.968,3243.53 875.968,3250.47C875.968,3257.41 881.604,3263.05 888.547,3263.05C895.49,3263.05 901.126,3257.41 901.126,3250.47C901.126,3243.53 895.49,3237.89 888.547,3237.89Z"/>
                </g>
            </g>
        </g>
    </g>
</svg>
