<?xml version="1.0" encoding="UTF-8" standalone="no"?>
<!DOCTYPE svg PUBLIC "-//W3C//DTD SVG 1.1//EN" "http://www.w3.org/Graphics/SVG/1.1/DTD/svg11.dtd">
<svg width="100%" height="100%" viewBox="0 0 571 571" version="1.1" xmlns="http://www.w3.org/2000/svg" xmlns:xlink="http://www.w3.org/1999/xlink" xml:space="preserve" xmlns:serif="http://www.serif.com/" style="fill-rule:evenodd;clip-rule:evenodd;stroke-linejoin:round;stroke-miterlimit:2;">
    <g transform="matrix(1,0,0,1,-926.776,-1005.64)">
        <g transform="matrix(0.958328,0.0167277,-0.0167277,0.958328,164.46,524.523)">
            <path d="M1106.51,482.773C1270.64,482.773 1403.89,616.025 1403.89,780.155C1403.89,944.286 1270.64,1077.54 1106.51,1077.54C942.381,1077.54 809.128,944.286 809.128,780.155C809.128,616.025 942.381,482.773 1106.51,482.773ZM1253.13,1023.2C1267.1,1014.81 1271.62,996.652 1263.23,982.683C1254.84,968.714 1236.68,964.187 1222.71,972.581C1208.74,980.974 1204.21,999.129 1212.61,1013.1C1221,1027.07 1239.16,1031.59 1253.13,1023.2ZM969.806,1028.87C984.06,1036.77 1002.05,1031.62 1009.95,1017.36C1017.85,1003.11 1012.69,985.122 998.437,977.221C984.183,969.32 966.197,974.478 958.296,988.731C950.395,1002.98 955.553,1020.97 969.806,1028.87ZM1112.23,1063.99C1128.52,1063.71 1141.52,1050.25 1141.23,1033.95C1140.95,1017.66 1127.49,1004.66 1111.19,1004.95C1094.9,1005.23 1081.9,1018.69 1082.19,1034.99C1082.47,1051.28 1095.93,1064.28 1112.23,1063.99ZM864.028,927.245C872.422,941.214 890.577,945.741 904.546,937.347C918.515,928.954 923.042,910.798 914.648,896.829C906.255,882.86 888.099,878.334 874.13,886.727C860.161,895.121 855.635,913.276 864.028,927.245ZM1106.51,569.716C990.367,569.717 896.072,664.011 896.072,780.155C896.072,896.3 990.367,990.595 1106.51,990.595C1222.65,990.595 1316.95,896.3 1316.95,780.155C1316.95,664.011 1222.65,569.717 1106.51,569.716ZM1101.93,497.336C1085.63,497.62 1072.63,511.08 1072.92,527.374C1073.2,543.668 1086.66,556.666 1102.96,556.382C1119.25,556.097 1132.25,542.638 1131.97,526.343C1131.68,510.049 1118.22,497.051 1101.93,497.336ZM858.357,643.925C850.456,658.179 855.614,676.165 869.867,684.066C884.121,691.967 902.107,686.809 910.008,672.556C917.909,658.302 912.751,640.316 898.498,632.415C884.244,624.514 866.258,629.672 858.357,643.925ZM959.984,538.147C946.015,546.54 941.488,564.696 949.881,578.665C958.275,592.634 976.43,597.161 990.399,588.767C1004.37,580.374 1008.89,562.218 1000.5,548.249C992.108,534.28 973.953,529.754 959.984,538.147ZM1243.3,532.476C1229.05,524.575 1211.06,529.733 1203.16,543.986C1195.26,558.24 1200.42,576.226 1214.67,584.127C1228.93,592.028 1246.91,586.87 1254.81,572.617C1262.71,558.363 1257.56,540.377 1243.3,532.476ZM1354.75,917.423C1362.65,903.169 1357.5,885.183 1343.24,877.282C1328.99,869.381 1311,874.539 1303.1,888.792C1295.2,903.046 1300.36,921.032 1314.61,928.933C1328.87,936.834 1346.85,931.676 1354.75,917.423ZM1389.88,775.003C1389.59,758.709 1376.13,745.711 1359.84,745.995C1343.54,746.28 1330.54,759.739 1330.83,776.033C1331.11,792.328 1344.57,805.326 1360.87,805.041C1377.16,804.757 1390.16,791.297 1389.88,775.003ZM1349.08,634.103C1340.69,620.134 1322.53,615.607 1308.56,624C1294.6,632.394 1290.07,650.549 1298.46,664.518C1306.86,678.487 1325.01,683.014 1338.98,674.62C1352.95,666.227 1357.48,648.072 1349.08,634.103ZM823.217,785.302C823.501,801.596 836.961,814.594 853.255,814.309C869.549,814.025 882.547,800.565 882.263,784.271C881.978,767.977 868.519,754.979 852.224,755.263C835.93,755.548 822.932,769.007 823.217,785.302Z" style="fill:rgb(35,31,32);"/>
        </g>
        <g transform="matrix(1.11072,0,0,1.11072,-732.387,-2257.12)">
            <g>
                <g transform="matrix(0.78543,0,0,0.690834,157.234,1922.73)">
                    <path d="M1944.52,1800.32L1944.52,1925.01C1944.52,1930.2 1940.44,1934.6 1935.24,1934.6L1841.12,1934.6C1835.92,1934.6 1831.85,1930.2 1831.85,1925.01L1831.85,1911.24C1831.85,1906.05 1835.92,1901.64 1841.12,1901.64C1841.12,1901.64 1912.21,1901.64 1912.21,1901.64L1912.21,1800.32C1912.21,1798.83 1913.28,1797.61 1914.6,1797.61L1942.13,1797.61C1943.44,1797.61 1944.52,1798.83 1944.52,1800.32Z" style="fill:rgb(35,31,32);"/>
                </g>
                <g transform="matrix(0.78543,0,0,0.690834,157.234,1922.73)">
                    <path d="M1912.21,1782.89L1912.21,1645.53C1912.21,1640.34 1916.28,1635.93 1921.48,1635.93L1931.21,1635.93C1933.55,1635.93 1935.88,1636.84 1937.65,1638.62C1937.65,1638.62 2028.39,1729.36 2028.39,1729.36L2119.12,1638.62C2120.9,1636.84 2123.23,1635.93 2125.56,1635.93L2135.29,1635.93C2140.49,1635.93 2144.56,1640.34 2144.56,1645.53L2144.56,1782.89C2144.56,1784.39 2143.49,1785.61 2142.17,1785.61L2114.65,1785.61C2113.33,1785.61 2112.26,1784.39 2112.26,1782.89L2112.26,1694.72L2033.39,1773.58C2033.35,1773.62 2033.31,1773.66 2033.27,1773.69C2031.96,1774.84 2030.26,1775.54 2028.39,1775.54C2026.52,1775.54 2024.81,1774.84 2023.5,1773.69C2023.46,1773.66 2023.42,1773.62 2023.38,1773.58L1944.52,1694.72L1944.52,1782.89C1944.52,1784.39 1943.44,1785.61 1942.13,1785.61L1914.6,1785.61C1913.28,1785.61 1912.21,1784.39 1912.21,1782.89Z" style="fill:rgb(35,31,32);"/>
                </g>
            </g>
            <g transform="matrix(0.78543,0,0,0.690834,157.234,1922.73)">
                <path d="M2144.56,1800.32L2144.56,1901.64L2215.66,1901.64C2220.85,1901.64 2224.93,1906.05 2224.93,1911.24L2224.93,1925.01C2224.93,1930.2 2220.85,1934.6 2215.66,1934.6L2121.53,1934.6C2116.33,1934.6 2112.26,1930.2 2112.26,1925.01L2112.26,1800.32C2112.26,1798.83 2113.33,1797.61 2114.65,1797.61L2142.17,1797.61C2143.49,1797.61 2144.56,1798.83 2144.56,1800.32Z" style="fill:rgb(35,31,32);"/>
            </g>
        </g>
        <g transform="matrix(0.942273,0,0,0.942273,986.241,-273.814)">
            <path d="M212.575,1696.28C207.69,1696.28 203.764,1695.43 200.796,1693.73C199.023,1692.72 197.105,1690.96 195.042,1688.44L195.042,1694.91L179.898,1694.91L179.898,1625.43L195.314,1625.43L195.314,1650.16C197.268,1647.77 199.421,1645.94 201.773,1644.69C204.56,1643.11 208.106,1642.33 212.412,1642.33C220.192,1642.33 226.281,1644.76 230.678,1649.64C235.074,1654.52 237.273,1660.81 237.273,1668.52C237.273,1676.52 235.102,1683.14 230.759,1688.39C226.417,1693.65 220.355,1696.28 212.575,1696.28ZM221.043,1669.94C221.043,1666.29 220.5,1663.27 219.414,1660.88C217.352,1656.34 213.552,1654.08 208.016,1654.08C202.407,1654.08 198.553,1656.3 196.454,1660.73C195.368,1663.09 194.825,1666.15 194.825,1669.89C194.825,1674.3 195.947,1677.95 198.191,1680.84C200.434,1683.74 203.854,1685.18 208.45,1685.18C212.43,1685.18 215.524,1683.78 217.732,1680.98C219.939,1678.18 221.043,1674.5 221.043,1669.94Z" style="fill:rgb(35,31,32);"/>
        </g>
        <g transform="matrix(0.942273,0,0,0.942273,986.241,-273.814)">
            <path d="M250.571,1649.03C254.661,1644.5 261.681,1642.23 271.632,1642.23C278.11,1642.23 283.864,1643.35 288.894,1645.58C293.924,1647.82 296.439,1652.03 296.439,1658.23L296.439,1681.83C296.439,1683.47 296.475,1685.45 296.547,1687.78C296.656,1689.54 296.963,1690.74 297.47,1691.37C297.977,1692 298.736,1692.52 299.75,1692.92L299.75,1694.91L282.923,1694.91C282.452,1693.87 282.127,1692.89 281.946,1691.98C281.765,1691.07 281.62,1690.03 281.511,1688.87C279.376,1690.88 276.916,1692.59 274.129,1694.01C270.8,1695.68 267.037,1696.51 262.839,1696.51C257.483,1696.51 253.059,1695.18 249.567,1692.52C246.075,1689.87 244.329,1686.1 244.329,1681.22C244.329,1674.89 247.134,1670.32 252.743,1667.48C255.819,1665.94 260.342,1664.84 266.313,1664.18L271.578,1663.61C274.437,1663.3 276.481,1662.9 277.712,1662.43C279.919,1661.62 281.023,1660.34 281.023,1658.61C281.023,1656.5 280.182,1655.05 278.499,1654.24C276.816,1653.44 274.346,1653.04 271.09,1653.04C267.435,1653.04 264.847,1653.83 263.327,1655.4C262.242,1656.57 261.518,1658.14 261.156,1660.12L246.229,1660.12C246.555,1655.62 248.002,1651.92 250.571,1649.03ZM262.079,1685.18C263.526,1686.22 265.3,1686.74 267.398,1686.74C270.728,1686.74 273.795,1685.89 276.599,1684.19C279.404,1682.49 280.86,1679.39 280.969,1674.89L280.969,1669.89C279.992,1670.43 279.005,1670.86 278.01,1671.19C277.015,1671.52 275.649,1671.83 273.912,1672.11L270.438,1672.68C267.181,1673.18 264.847,1673.79 263.436,1674.52C261.048,1675.74 259.853,1677.65 259.853,1680.23C259.853,1682.53 260.595,1684.18 262.079,1685.18Z" style="fill:rgb(35,31,32);"/>
        </g>
        <g transform="matrix(0.942273,0,0,0.942273,987.772,-425.687)">
            <path d="M260.695,1649.97C265.689,1655.42 268.186,1661.85 268.186,1669.28C268.186,1676.83 265.689,1683.29 260.695,1688.65C255.701,1694.02 248.12,1696.7 237.951,1696.7C227.783,1696.7 220.202,1694.02 215.208,1688.65C210.214,1683.29 207.717,1676.83 207.717,1669.28C207.717,1661.85 210.214,1655.42 215.208,1649.97C220.202,1644.53 227.783,1641.81 237.951,1641.81C248.12,1641.81 255.701,1644.53 260.695,1649.97ZM237.897,1653.18C233.374,1653.18 229.891,1654.57 227.448,1657.36C225.005,1660.14 223.784,1664.12 223.784,1669.28C223.784,1674.44 225.005,1678.42 227.448,1681.22C229.891,1684.02 233.374,1685.42 237.897,1685.42C242.42,1685.42 245.894,1684.02 248.319,1681.22C250.743,1678.42 251.956,1674.44 251.956,1669.28C251.956,1664.12 250.743,1660.14 248.319,1657.36C245.894,1654.57 242.42,1653.18 237.897,1653.18Z" style="fill:rgb(35,31,32);"/>
        </g>
        <g transform="matrix(0.942273,0,0,0.942273,1129.24,-273.814)">
            <path d="M243.488,1696.28C238.603,1696.28 234.676,1695.43 231.709,1693.73C229.936,1692.72 228.018,1690.96 225.955,1688.44L225.955,1694.91L210.811,1694.91L210.811,1625.43L226.227,1625.43L226.227,1650.16C228.181,1647.77 230.334,1645.94 232.686,1644.69C235.472,1643.11 239.019,1642.33 243.325,1642.33C251.105,1642.33 257.194,1644.76 261.59,1649.64C265.987,1654.52 268.186,1660.81 268.186,1668.52C268.186,1676.52 266.014,1683.14 261.672,1688.39C257.329,1693.65 251.268,1696.28 243.488,1696.28ZM251.956,1669.94C251.956,1666.29 251.413,1663.27 250.327,1660.88C248.265,1656.34 244.465,1654.08 238.928,1654.08C233.319,1654.08 229.465,1656.3 227.367,1660.73C226.281,1663.09 225.738,1666.15 225.738,1669.89C225.738,1674.3 226.86,1677.95 229.104,1680.84C231.347,1683.74 234.767,1685.18 239.363,1685.18C243.343,1685.18 246.437,1683.78 248.645,1680.98C250.852,1678.18 251.956,1674.5 251.956,1669.94Z" style="fill:rgb(35,31,32);"/>
        </g>
        <g transform="matrix(0.942273,0,0,0.942273,1111.08,-348.224)">
            <path d="M245.768,1643.46L245.768,1694.91L230.081,1694.91L230.081,1643.46L245.768,1643.46ZM245.768,1624.91L245.768,1637.32L230.081,1637.32L230.081,1624.91L245.768,1624.91Z" style="fill:rgb(35,31,32);"/>
        </g>
        <g transform="matrix(0.942273,0,0,0.942273,845.985,-273.814)">
            <path d="M265.2,1625.43L265.2,1694.91L250.164,1694.91L250.164,1687.78C247.957,1690.83 245.442,1693.05 242.619,1694.43C239.797,1695.82 236.287,1696.51 232.089,1696.51C225.177,1696.51 219.36,1694.08 214.638,1689.22C209.915,1684.36 207.554,1678.12 207.554,1670.5C207.554,1661.73 209.879,1654.82 214.529,1649.78C219.179,1644.75 225.394,1642.23 233.175,1642.23C236.757,1642.23 239.942,1642.92 242.728,1644.29C245.514,1645.65 247.776,1647.55 249.513,1649.97L249.513,1625.43L265.2,1625.43ZM223.513,1669.51C223.513,1674.27 224.598,1678.06 226.769,1680.89C228.904,1683.75 232.161,1685.18 236.54,1685.18C240.919,1685.18 244.248,1683.77 246.528,1680.94C248.807,1678.1 249.947,1674.44 249.947,1669.94C249.947,1663.64 248.12,1659.14 244.465,1656.44C242.221,1654.8 239.616,1653.98 236.649,1653.98C232.125,1653.98 228.805,1655.47 226.688,1658.44C224.571,1661.42 223.513,1665.11 223.513,1669.51Z" style="fill:rgb(35,31,32);"/>
        </g>
        <g transform="matrix(0.942273,0,0,0.942273,845.985,-348.224)">
            <path d="M265.037,1679.8C264.639,1682.86 262.812,1685.95 259.555,1689.1C254.489,1694.11 247.396,1696.61 238.277,1696.61C230.75,1696.61 224.11,1694.5 218.356,1690.28C212.602,1686.07 209.725,1679.2 209.725,1669.7C209.725,1660.8 212.322,1653.97 217.515,1649.22C222.707,1644.47 229.447,1642.09 237.734,1642.09C242.656,1642.09 247.088,1642.89 251.033,1644.5C254.977,1646.1 258.234,1648.63 260.803,1652.1C263.119,1655.15 264.621,1658.69 265.309,1662.72C265.707,1665.08 265.87,1668.48 265.797,1672.91L225.304,1672.91C225.521,1678.07 227.385,1681.69 230.895,1683.77C233.03,1685.06 235.599,1685.7 238.603,1685.7C241.787,1685.7 244.374,1684.92 246.365,1683.34C247.45,1682.49 248.409,1681.31 249.242,1679.8L265.037,1679.8ZM249.73,1664.04C249.477,1660.48 248.237,1657.78 246.012,1655.94C243.786,1654.1 241.027,1653.18 237.734,1653.18C234.152,1653.18 231.374,1654.16 229.402,1656.11C227.43,1658.06 226.19,1660.7 225.684,1664.04L249.73,1664.04Z" style="fill:rgb(35,31,32);"/>
        </g>
        <g transform="matrix(1,0,0,1,213.286,-1849.8)">
            <path d="M925.629,3241.98L940.36,3226.73C940.36,3226.73 940.36,3222.99 940.361,3222.99C937.803,3220.7 936.193,3217.37 936.193,3213.67L936.193,3199.84C936.193,3192.94 941.794,3187.34 948.693,3187.34C955.592,3187.34 961.193,3192.94 961.193,3199.84L961.193,3213.67C961.193,3217.37 959.584,3220.7 957.027,3222.99L957.027,3230.1C957.027,3232.26 956.188,3234.33 954.687,3235.89L935.159,3256.1C933.589,3257.73 931.426,3258.64 929.165,3258.64L915.129,3258.64C913.839,3262.84 911.537,3266.78 908.222,3270.1C897.371,3280.95 879.751,3280.95 868.9,3270.1C858.048,3259.25 858.048,3241.63 868.9,3230.78C879.751,3219.93 897.371,3219.93 908.222,3230.78C911.47,3234.03 913.746,3237.88 915.05,3241.98L925.629,3241.98ZM888.617,3237.45C881.446,3237.45 875.625,3243.27 875.625,3250.44C875.625,3257.61 881.446,3263.43 888.617,3263.43C895.787,3263.43 901.609,3257.61 901.609,3250.44C901.609,3243.27 895.787,3237.45 888.617,3237.45ZM982.65,3277.32C985.976,3283.38 987.062,3290.68 985.133,3297.88C981.161,3312.71 965.902,3321.52 951.079,3317.55C936.256,3313.57 927.446,3298.32 931.418,3283.49C935.39,3268.67 950.649,3259.86 965.472,3263.83C967.284,3264.32 969.006,3264.97 970.626,3265.77L973.581,3262.82C973.581,3262.82 973.581,3222.99 973.582,3222.99C971.024,3220.7 969.414,3217.37 969.414,3213.67L969.414,3199.84C969.414,3192.94 975.015,3187.34 981.914,3187.34C988.813,3187.34 994.414,3192.94 994.414,3199.84L994.414,3213.67C994.414,3217.37 992.805,3220.7 990.248,3222.99L990.248,3266.27C990.248,3268.48 989.37,3270.6 987.807,3272.16L982.65,3277.32ZM958.292,3277.73C951.121,3277.73 945.3,3283.55 945.3,3290.72C945.3,3297.89 951.121,3303.71 958.292,3303.71C965.462,3303.71 971.284,3297.89 971.284,3290.72C971.284,3283.55 965.462,3277.73 958.292,3277.73ZM1006.8,3222.99C1004.25,3220.7 1002.63,3217.37 1002.63,3213.67L1002.63,3199.84C1002.63,3192.94 1008.24,3187.34 1015.13,3187.34C1022.03,3187.34 1027.63,3192.94 1027.63,3199.84L1027.63,3213.67C1027.63,3217.37 1026.03,3220.7 1023.47,3222.99L1023.47,3262.82C1023.47,3262.82 1026.42,3265.77 1026.42,3265.77C1028.04,3264.97 1029.77,3264.32 1031.58,3263.83C1046.4,3259.86 1061.66,3268.67 1065.63,3283.49C1069.6,3298.32 1060.79,3313.57 1045.97,3317.55C1031.15,3321.52 1015.89,3312.71 1011.92,3297.88C1009.99,3290.68 1011.07,3283.38 1014.4,3277.32L1009.24,3272.16C1007.68,3270.6 1006.8,3268.48 1006.8,3266.27L1006.8,3222.99ZM1038.77,3277.73C1031.6,3277.73 1025.78,3283.55 1025.78,3290.72C1025.78,3297.89 1031.6,3303.71 1038.77,3303.71C1045.94,3303.71 1051.76,3297.89 1051.76,3290.72C1051.76,3283.55 1045.94,3277.73 1038.77,3277.73ZM1041.02,3222.99C1038.47,3220.7 1036.86,3217.37 1036.86,3213.67L1036.86,3199.84C1036.86,3192.94 1042.46,3187.34 1049.36,3187.34C1056.26,3187.34 1061.86,3192.94 1061.86,3199.84L1061.86,3213.67C1061.86,3217.37 1060.25,3220.7 1057.69,3222.99C1057.69,3222.99 1057.69,3226.73 1057.69,3226.73L1072.42,3241.98C1072.42,3241.98 1082,3241.98 1082,3241.98C1083.3,3237.88 1085.58,3234.03 1088.83,3230.78C1099.68,3219.93 1117.3,3219.93 1128.15,3230.78C1139,3241.63 1139,3259.25 1128.15,3270.1C1117.3,3280.95 1099.68,3280.95 1088.83,3270.1C1085.51,3266.78 1083.21,3262.84 1081.92,3258.64L1068.88,3258.64C1066.62,3258.64 1064.46,3257.73 1062.89,3256.1L1043.36,3235.89C1041.86,3234.33 1041.02,3232.26 1041.02,3230.1L1041.02,3222.99ZM1108.46,3237.45C1101.29,3237.45 1095.46,3243.27 1095.46,3250.44C1095.46,3257.61 1101.29,3263.43 1108.46,3263.43C1115.63,3263.43 1121.45,3257.61 1121.45,3250.44C1121.45,3243.27 1115.63,3237.45 1108.46,3237.45Z" style="fill:rgb(35,31,32);"/>
        </g>
    </g>
</svg>
